<svg xmlns="http://www.w3.org/2000/svg" viewBox="0 0 42.65 31.14"><defs><style>.cls-1{opacity:0.3;}.cls-2{fill:#809dce;}</style></defs><title>Asset 30</title><g id="Layer_2" data-name="Layer 2"><g id="Main_assets" data-name="Main assets"><g class="cls-1"><polygon class="cls-2" points="0 6.56 0 27.65 12.68 17.1 0 6.56"/><path class="cls-2" d="M39.28,0H3.37A3.38,3.38,0,0,0,0,2.79L16.81,16.73l2.79,2.32a2.81,2.81,0,0,0,3.45,0L26,16.61,42.6,2.79A3.38,3.38,0,0,0,39.28,0Z"/><polygon class="cls-2" points="42.65 27.65 42.65 6.56 29.97 17.1 42.65 27.65"/><path class="cls-2" d="M25.32,21l-2.27,1.89a2.81,2.81,0,0,1-3.45,0l-2.93-2.43L15,19,1.27,30.4a3.35,3.35,0,0,0,2.1.74H39.28a3.35,3.35,0,0,0,2.1-.74L27.68,19Z"/></g></g></g></svg>