<svg xmlns="http://www.w3.org/2000/svg" viewBox="0 0 297.49 137.04"><defs><style>.cls-1{fill:#eaac1f;}.cls-2{fill:#ecd330;}.cls-3,.cls-4{fill:#0b1539;}.cls-4{font-size:17.12px;font-family:Montserrat-SemiBold, Montserrat;font-weight:700;letter-spacing:0.01em;}</style></defs><title>herc logo</title><g id="Layer_2" data-name="Layer 2"><g id="Main_assets" data-name="Main assets"><g id="herc_logo" data-name="herc logo"><rect class="cls-1" x="124.97" y="66.72" width="8.97" height="52.24"/><rect class="cls-1" x="155.77" y="66.72" width="8.97" height="52.24"/><path class="cls-1" d="M133.93,89.72"/><rect class="cls-1" x="131.59" y="88.16" width="26.9" height="6.24"/><rect class="cls-1" x="176.43" y="66.72" width="9.75" height="52.24"/><rect class="cls-1" x="176.43" y="66.72" width="27.68" height="5.07"/><rect class="cls-1" x="176.43" y="113.89" width="27.68" height="5.07"/><rect class="cls-1" x="176.43" y="88.74" width="25.34" height="5.65"/><rect class="cls-1" x="213.08" y="66.72" width="9.75" height="52.24"/><path class="cls-1" d="M235.11,96.24s4.87,13.36,13.06,17.65a4.86,4.86,0,0,0,3.51,0V119H240.37c-3.12,0-3.12-2.16-15.21-22.72A62.25,62.25,0,0,0,235.11,96.24Z"/><path class="cls-1" d="M292.29,66.44c-4.55-3.25-15.63-2.14-18.45-1.82s-8.46,2.68-11.29,5.83-5.35,7.66-5.35,11.07V102.8a17.12,17.12,0,0,0,4.23,10.52c3.38,3.62,7.6,5.75,9.94,5.75h12.35c3.4-.61,6.25-1.38,8.58-3.43v-7c-3.69,4.38-14.43,4-17.73,3.11s-6.93-4.17-6.66-10.24l-.39-21.08a10.68,10.68,0,0,1,7.23-8.81c3.38-1,11.79-1.85,17.54,2.36Z"/><path class="cls-1" d="M233.35,66.72H222.83V96.85l5.85-.12s15.21,2.34,15.21-14S233.35,66.72,233.35,66.72Zm1.88,19.39s-.91,6.24-5.78,6.11h-5.78V71.78h4.94a6.29,6.29,0,0,1,6.63,5.74Z"/><rect class="cls-1" x="45.63" y="108.6" width="63.94" height="2.93"/><rect class="cls-1" x="43.87" y="111.53" width="67.06" height="3.36"/><rect class="cls-1" x="42.51" y="114.89" width="69.98" height="3.47"/><rect class="cls-2" x="38.69" y="118.41" width="258.8" height="14.95"/><polygon class="cls-3" points="53.75 119.98 53.75 124.74 48.9 124.74 48.9 119.98 46.91 119.98 46.91 131.58 48.9 131.58 48.9 126.13 53.75 126.13 53.75 131.58 55.74 131.58 55.74 119.98 53.75 119.98"/><rect class="cls-3" x="82.46" y="119.98" width="2.16" height="11.6"/><rect class="cls-3" x="82.46" y="119.98" width="6.14" height="1.12"/><rect class="cls-3" x="82.46" y="130.45" width="6.14" height="1.12"/><rect class="cls-3" x="82.46" y="124.87" width="5.62" height="1.25"/><rect class="cls-3" x="114.24" y="119.98" width="2.16" height="11.6"/><path class="cls-3" d="M119.13,126.54s1.08,3,2.9,3.92a1.08,1.08,0,0,0,.78,0v1.12H120.3c-.69,0-.69-.48-3.37-5A13.82,13.82,0,0,0,119.13,126.54Z"/><path class="cls-3" d="M155.22,120.22c-1-.72-3.46-.41-4.1-.4a4.35,4.35,0,0,0-2.5,1.29,4.3,4.3,0,0,0-1.19,2.46v4.72a3.8,3.8,0,0,0,.94,2.34,3.73,3.73,0,0,0,2.21,1.28h2.74a3.84,3.84,0,0,0,1.9-.89v-.9h-.78c-.59.7-2,.46-3.26.34-1-.31-1.45-1-1.7-2.45l-.09-4.68a2.37,2.37,0,0,1,1.61-2,6,6,0,0,1,4.22.52Z"/><path class="cls-3" d="M118.74,120h-2.34v6.69l1.3,0a2.86,2.86,0,0,0,3.37-3.12C121.08,119.9,118.74,120,118.74,120Zm.42,4.3s-.2,1.38-1.28,1.36h-1.28v-4.53h1.1a1.4,1.4,0,0,1,1.47,1.27Z"/><text class="cls-4" transform="translate(181.3 131.9) scale(0.8 1)">U</text><path class="cls-3" d="M219.46,119.59v9.63h4.14v2.36h-6.28v-12Z"/><path class="cls-3" d="M285.92,120.73a1.59,1.59,0,0,0-1.69,1.85c.13,1.88,4.37,1.59,4.37,5.47,0,3-2.44,3.54-4.13,3.53a20.66,20.66,0,0,1-3.29-.33V129a5,5,0,0,0,2.69.65c.89,0,2.18-.44,2.11-1.61-.13-2.26-4.81-2-4.81-5.07a4.29,4.29,0,0,1,3.42-4,6.17,6.17,0,0,1,4,.48v2.23A3.44,3.44,0,0,0,285.92,120.73Z"/><rect class="cls-3" x="250.01" y="119.98" width="2.16" height="11.6"/><rect class="cls-3" x="250.01" y="119.98" width="6.14" height="1.12"/><rect class="cls-3" x="250.01" y="130.45" width="6.14" height="1.12"/><rect class="cls-3" x="250.01" y="124.87" width="5.62" height="1.25"/><path class="cls-1" d="M50.68,42.23A13.55,13.55,0,1,0,37.13,28.68,13.56,13.56,0,0,0,50.68,42.23Zm0-24A10.43,10.43,0,1,1,40.25,28.68,10.44,10.44,0,0,1,50.68,18.25Z"/><path class="cls-1" d="M50.68,36a7.27,7.27,0,1,0-7.27-7.27A7.28,7.28,0,0,0,50.68,36Zm0-12.87a5.6,5.6,0,1,1-5.6,5.6A5.6,5.6,0,0,1,50.68,23.09Z"/><path class="cls-1" d="M50.68,31.8a3.12,3.12,0,1,0-3.12-3.12A3.12,3.12,0,0,0,50.68,31.8Zm0-4.68a1.56,1.56,0,1,1-1.56,1.56A1.56,1.56,0,0,1,50.68,27.12Z"/><path class="cls-1" d="M117.67,28.68a13.55,13.55,0,1,0-13.55,13.55A13.56,13.56,0,0,0,117.67,28.68Zm-24,0a10.43,10.43,0,1,1,10.43,10.43A10.44,10.44,0,0,1,93.7,28.68Z"/><path class="cls-1" d="M111.39,28.68A7.27,7.27,0,1,0,104.12,36,7.28,7.28,0,0,0,111.39,28.68Zm-12.87,0a5.6,5.6,0,1,1,5.6,5.6A5.6,5.6,0,0,1,98.53,28.68Z"/><path class="cls-1" d="M107.24,28.68a3.12,3.12,0,1,0-3.12,3.12A3.12,3.12,0,0,0,107.24,28.68Zm-4.68,0a1.56,1.56,0,1,1,1.56,1.56A1.56,1.56,0,0,1,102.56,28.68Z"/><path class="cls-1" d="M145.72,9.38C133.06-3.35,103.28-.09,91.07,1.9A154.39,154.39,0,0,0,70.63,7.33H55.55A21.89,21.89,0,0,0,28.77,28.68c0,.64,0,1.27.09,1.9a126.14,126.14,0,0,0-10.17,8.66C5.16,52.13-1.23,64.14.2,74c.87,6,4.58,10.81,10.71,13.94,6.3,3.21,15.58,4.78,26.3,4.78a131,131,0,0,0,16.22-1.07v17H64.34V89.84q3.79-.76,7.6-1.71V108.6H82.86V85c1.5-.49,3-1,4.46-1.54,1.17-.43,2.35-.88,3.53-1.35V108.6h10.92V77.33C124.71,66.38,147.6,49.08,151,28.75,152.38,20.8,150.59,14.28,145.72,9.38ZM88.22,28.68a15.91,15.91,0,1,1,15.91,15.91A15.93,15.93,0,0,1,88.22,28.68Zm-5.85-2.53H72.43a21.74,21.74,0,0,0-.65-3.31H83A21.74,21.74,0,0,0,82.37,26.15Zm3.5-9.55H68.94a22.06,22.06,0,0,0-2.22-2.82H88.08A22.06,22.06,0,0,0,85.86,16.6ZM50.68,12.77A15.91,15.91,0,1,1,34.77,28.68,15.93,15.93,0,0,1,50.68,12.77Zm92.67,14.67C140,47.33,110.56,66.6,84.64,76.1,56,86.6,25.89,86.8,14.45,81c-3.84-2-6-4.69-6.54-8.12-.6-4.12.7-13.23,16.15-28,2.22-2.11,4.61-4.2,7.12-6.22A21.83,21.83,0,0,0,53.42,50.42V72.78a55.54,55.54,0,0,0,10.92-2.53V45.79a22,22,0,0,0,7.15-10.29h.45V67.71a43.92,43.92,0,0,0,10.92-4.14V35.51h.45A22,22,0,0,0,90.85,46.1V60.47a55.13,55.13,0,0,0,10.92-5.33V50.46a21.91,21.91,0,0,0,9.09-42.63c12.32-.27,23.84,1.52,29.33,7C143.23,17.94,144.26,22,143.35,27.45Z"/></g></g></g></svg>