<svg xmlns="http://www.w3.org/2000/svg" viewBox="0 0 261.14 43.35"><defs><style>.cls-1,.cls-3{opacity:0.3;}.cls-2,.cls-3{fill:#809dce;}</style></defs><title>search icon</title><g id="Layer_2" data-name="Layer 2"><g id="Main_assets" data-name="Main assets"><g id="search_iicon" data-name="search iicon" class="cls-1"><path class="cls-2" d="M244.77,30.7a2.45,2.45,0,0,0,3.43-.27h0a2.45,2.45,0,0,0,.33-3.42l-5.67-5.76c-.41-.71-4.18,3.33-3.75,3.7Z"/><path class="cls-2" d="M243.72,31.56l0,0a.48.48,0,0,1,0-.67l5.21-5.13a.48.48,0,0,1,.67,0l1.18,1.2h0l8.46,8.59c2.15,2.18,2.59,5.24,1,6.83s-4.67,1.11-6.82-1.08l-9.63-9.78Z"/><path class="cls-2" d="M243,4.31a14.44,14.44,0,1,0-.15,20.42A14.44,14.44,0,0,0,243,4.31Zm-4.16,16.35a8.73,8.73,0,1,1,.09-12.34A8.73,8.73,0,0,1,238.84,20.66Z"/></g><rect class="cls-3" y="11.17" width="203.33" height="28.91" rx="10.43" ry="10.43"/></g></g></svg>