<svg xmlns="http://www.w3.org/2000/svg" viewBox="0 0 1189 87.57"><defs><style>.cls-1{font-size:40px;fill:#ecd330;letter-spacing:-0.03em;}.cls-1,.cls-3{font-family:DIN-Medium, DIN;}.cls-2{letter-spacing:-0.04em;}.cls-3{font-size:30px;fill:#fff;letter-spacing:-0.03em;}.cls-4{letter-spacing:-0.04em;}.cls-5{letter-spacing:-0.05em;}.cls-6{letter-spacing:-0.04em;}.cls-7{letter-spacing:-0.04em;}.cls-8{letter-spacing:-0.03em;}.cls-9{letter-spacing:-0.06em;}.cls-10{letter-spacing:-0.05em;}.cls-11{letter-spacing:-0.06em;}.cls-12{letter-spacing:-0.06em;}.cls-13{letter-spacing:-0.05em;}.cls-14{letter-spacing:-0.04em;}</style></defs><title>steve kingwood text</title><g id="Layer_2" data-name="Layer 2"><g id="Main_assets" data-name="Main assets"><text class="cls-1" transform="translate(0 34.24)">STEVE KIN<tspan class="cls-2" x="182.2" y="0">GW</tspan><tspan x="239.72" y="0">OOD</tspan></text><text class="cls-3" transform="translate(0 81.24)">Supplier of <tspan class="cls-4" x="143.7" y="0">e</tspan><tspan class="cls-5" x="158.64" y="0">x</tspan><tspan x="172.2" y="0">otic B</tspan><tspan class="cls-6" x="242.54" y="0">r</tspan><tspan x="254.48" y="0">azilian King</tspan><tspan class="cls-7" x="399.77" y="0">w</tspan><tspan x="420.92" y="0">ood. His </tspan><tspan class="cls-7" x="527.72" y="0">w</tspan><tspan class="cls-8" x="548.87" y="0">ood is sou</tspan><tspan class="cls-9" x="673.79" y="0">r</tspan><tspan class="cls-10" x="685.07" y="0">c</tspan><tspan x="698.18" y="0">ed di</tspan><tspan class="cls-11" x="758" y="0">r</tspan><tspan x="769.28" y="0">ect</tspan><tspan class="cls-12" x="807.47" y="0">l</tspan><tspan x="815" y="0">y f</tspan><tspan class="cls-11" x="843.28" y="0">r</tspan><tspan class="cls-8" x="854.56" y="0">om </tspan><tspan class="cls-13" x="901.39" y="0">l</tspan><tspan class="cls-8" x="909.19" y="0">o</tspan><tspan class="cls-14" x="924.37" y="0">c</tspan><tspan x="937.75" y="0">al g</tspan><tspan class="cls-11" x="982.93" y="0">r</tspan><tspan class="cls-7" x="994.21" y="0">ow</tspan><tspan x="1030.33" y="0">e</tspan><tspan class="cls-6" x="1045.57" y="0">r</tspan><tspan class="cls-8" x="1057.51" y="0">s in B</tspan><tspan class="cls-6" x="1126.15" y="0">r</tspan><tspan class="cls-8" x="1138.09" y="0">azil.</tspan></text></g></g></svg>